<svg width="23" height="23" viewBox="0 0 23 23" fill="none" xmlns="http://www.w3.org/2000/svg">
<path fill-rule="evenodd" clip-rule="evenodd" d="M21.7093 1.70926C21.8022 1.61629 21.876 1.50591 21.9263 1.38443C21.9766 1.26295 22.0025 1.13275 22.0025 1.00126C22.0025 0.869775 21.9766 0.739575 21.9263 0.618096C21.876 0.496617 21.8022 0.386239 21.7093 0.293263C21.6163 0.200287 21.5059 0.126535 21.3844 0.0762167C21.263 0.0258985 21.1327 0 21.0013 0C20.8698 0 20.7396 0.0258985 20.6181 0.0762167C20.4966 0.126535 20.3862 0.200287 20.2933 0.293263L11.0013 9.58726L1.70926 0.293263C1.61629 0.200287 1.50591 0.126535 1.38443 0.0762167C1.26295 0.0258985 1.13275 9.7966e-10 1.00126 0C0.869775 -9.7966e-10 0.739575 0.0258985 0.618096 0.0762167C0.496617 0.126535 0.386239 0.200287 0.293263 0.293263C0.200287 0.386239 0.126535 0.496617 0.0762167 0.618096C0.0258985 0.739575 -9.7966e-10 0.869775 0 1.00126C9.7966e-10 1.13275 0.0258985 1.26295 0.0762167 1.38443C0.126535 1.50591 0.200287 1.61629 0.293263 1.70926L9.58726 11.0013L0.293263 20.2933C0.10549 20.481 0 20.7357 0 21.0013C0 21.2668 0.10549 21.5215 0.293263 21.7093C0.481036 21.897 0.735712 22.0025 1.00126 22.0025C1.26681 22.0025 1.52149 21.897 1.70926 21.7093L11.0013 12.4153L20.2933 21.7093C20.481 21.897 20.7357 22.0025 21.0013 22.0025C21.2668 22.0025 21.5215 21.897 21.7093 21.7093C21.897 21.5215 22.0025 21.2668 22.0025 21.0013C22.0025 20.7357 21.897 20.481 21.7093 20.2933L12.4153 11.0013L21.7093 1.70926Z" fill="#FE7063"/>
</svg>
