<svg width="16" height="16" viewBox="0 0 16 16" fill="none" xmlns="http://www.w3.org/2000/svg">
<path fill-rule="evenodd" clip-rule="evenodd" d="M8 0C3.58154 0 0 3.58154 0 8C0 12.4185 3.58154 16 8 16C12.4185 16 16 12.4185 16 8C16 3.58154 12.4185 0 8 0ZM5.84615 4.92308C5.40308 4.92308 5.16677 5.26687 5.07815 5.44328C4.97288 5.66519 4.91983 5.90826 4.92308 6.15385C4.92308 6.39836 4.97149 6.65026 5.07815 6.86441C5.16677 7.04082 5.40226 7.38462 5.84615 7.38462C6.28923 7.38462 6.52554 7.04082 6.61415 6.86441C6.72082 6.65108 6.76923 6.39836 6.76923 6.15385C6.76923 5.90933 6.72082 5.65744 6.61415 5.44328C6.52554 5.26687 6.29005 4.92308 5.84615 4.92308ZM9.38585 5.44328C9.47446 5.26687 9.70995 4.92308 10.1538 4.92308C10.5969 4.92308 10.8332 5.26687 10.9218 5.44328C11.0285 5.65662 11.0769 5.90933 11.0769 6.15385C11.0769 6.39836 11.0285 6.65026 10.9218 6.86441C10.8332 7.04082 10.5977 7.38462 10.1538 7.38462C9.71077 7.38462 9.47446 7.04082 9.38585 6.86441C9.28057 6.64251 9.22752 6.39944 9.23077 6.15385C9.23077 5.90933 9.27918 5.65744 9.38585 5.44328ZM11.0457 11.0457C11.1062 10.9894 11.1547 10.9215 11.1883 10.846C11.222 10.7705 11.2401 10.689 11.2415 10.6064C11.243 10.5237 11.2278 10.4417 11.1968 10.365C11.1659 10.2884 11.1198 10.2188 11.0614 10.1604C11.0029 10.1019 10.9333 10.0559 10.8567 10.0249C10.7801 9.99397 10.698 9.97878 10.6154 9.98023C10.5327 9.98169 10.4513 9.99978 10.3758 10.0334C10.3003 10.067 10.2323 10.1155 10.176 10.176C9.89027 10.4618 9.55104 10.6885 9.17768 10.8432C8.80431 10.9979 8.40414 11.0775 8 11.0775C7.59586 11.0775 7.19569 10.9979 6.82233 10.8432C6.44896 10.6885 6.10973 10.4618 5.824 10.176C5.70734 10.0673 5.55305 10.0081 5.39362 10.0109C5.2342 10.0137 5.08209 10.0783 4.96934 10.1911C4.85659 10.3038 4.792 10.4559 4.78919 10.6154C4.78638 10.7748 4.84555 10.9291 4.95426 11.0457C5.76208 11.8534 6.85765 12.3072 8 12.3072C9.14235 12.3072 10.2379 11.8534 11.0457 11.0457Z" fill="#272727"/>
</svg>
