<svg width="9" height="9" viewBox="0 0 9 9" fill="none" xmlns="http://www.w3.org/2000/svg">
<path d="M8.0269 3.04521L5.934 0.973973L6.62343 0.283562C6.8122 0.0945206 7.04414 0 7.31925 0C7.59404 0 7.82582 0.0945206 8.01459 0.283562L8.70402 0.973973C8.89279 1.16301 8.99128 1.39118 8.99949 1.65847C9.00769 1.92542 8.91741 2.15342 8.72864 2.34247L8.0269 3.04521ZM0.492448 9C0.352921 9 0.236047 8.95266 0.141825 8.85797C0.0472751 8.76362 0 8.64658 0 8.50685V7.1137C0 7.04794 0.0123112 6.98433 0.0369336 6.92285C0.061556 6.86104 0.0984896 6.80548 0.147734 6.75616L5.21995 1.67671L7.31285 3.7726L2.24064 8.85206C2.19139 8.90137 2.13608 8.93836 2.07468 8.96301C2.01296 8.98767 1.94927 9 1.88361 9H0.492448Z" fill="white"/>
</svg>
