<svg width="16" height="16" viewBox="0 0 16 16" fill="none" xmlns="http://www.w3.org/2000/svg">
<path d="M0.827063 0.0603601C0.731403 0.0125158 0.624236 -0.00752123 0.517752 0.00252827C0.411268 0.0125778 0.309742 0.0523104 0.224722 0.117206C0.139702 0.182102 0.074602 0.269557 0.0368268 0.369621C-0.000948446 0.469686 -0.00988236 0.578343 0.0110413 0.683234L1.61451 6.22624C1.64441 6.32954 1.70285 6.4223 1.78311 6.49387C1.86338 6.56544 1.9622 6.61291 2.06824 6.63082L8.57127 7.71999C8.87756 7.78057 8.87756 8.21943 8.57127 8.28001L2.06824 9.36918C1.9622 9.38709 1.86338 9.43456 1.78311 9.50613C1.70285 9.5777 1.64441 9.67046 1.61451 9.77376L0.0110413 15.3168C-0.00988236 15.4217 -0.000948446 15.5303 0.0368268 15.6304C0.074602 15.7304 0.139702 15.8179 0.224722 15.8828C0.309742 15.9477 0.411268 15.9874 0.517752 15.9975C0.624236 16.0075 0.731403 15.9875 0.827063 15.9396L15.6846 8.51087C15.7794 8.46336 15.8591 8.39042 15.9148 8.30019C15.9705 8.20997 16 8.10603 16 8C16 7.89397 15.9705 7.79003 15.9148 7.69981C15.8591 7.60958 15.7794 7.53664 15.6846 7.48913L0.827063 0.0603601V0.0603601Z" fill="#FF0000"/>
</svg>
